HIERARCHY
ROOT Hips
{
	OFFSET 0.00 0.00 0.00
	CHANNELS 6 Xposition Yposition Zposition Xrotation Yrotation Zrotation
	JOINT Spine
	{
		OFFSET 0.00000 6.11665 0.00000
		CHANNELS 3 Xrotation Yrotation Zrotation
		JOINT Head
		{
			OFFSET 0.00000 15.22556 0.00000
			CHANNELS 3 Xrotation Yrotation Zrotation
			End Site
			{
				OFFSET 0.00000 4.52755 0.00000
			}
		}
		JOINT LeftShoulder
		{
			OFFSET 0.00000 8.97765 0.00000
			CHANNELS 3 Xrotation Yrotation Zrotation
			JOINT LeftArm
			{
				OFFSET 7.11013 0.00000 0.00000
				CHANNELS 3 Xrotation Yrotation Zrotation
				JOINT LeftForeArm
				{
					OFFSET 10.39834 0.00000 0.00000
					CHANNELS 3 Yrotation Zrotation Xrotation
					JOINT LeftHand
					{
						OFFSET 8.88900 0.00000 0.00000
						CHANNELS 3 Xrotation Yrotation Zrotation
						JOINT LeftHandThumb1
						{
							OFFSET 0.00000 0.00000 0.00000
							CHANNELS 3 Xrotation Zrotation Yrotation
							End Site
							{
								OFFSET 0.00000 0.00000 3.93700
							}
						}
						End Site
						{
							OFFSET 3.93700 0.00000 0.00000
						}
					}
				}
			}
		}
		JOINT RightShoulder
		{
			OFFSET 0.00000 8.97765 0.00000
			CHANNELS 3 Xrotation Yrotation Zrotation
			JOINT RightArm
			{
				OFFSET -7.11013 0.00000 0.00000
				CHANNELS 3 Xrotation Yrotation Zrotation
				JOINT RightForeArm
				{
					OFFSET -10.39834 0.00000 0.00000
					CHANNELS 3 Yrotation Zrotation Xrotation
					JOINT RightHand
					{
						OFFSET -8.88900 0.00000 0.00000
						CHANNELS 3 Xrotation Yrotation Zrotation
						JOINT RightHandThumb1
						{
							OFFSET 0.00000 0.00000 0.00000
							CHANNELS 3 Xrotation Zrotation Yrotation
							End Site
							{
								OFFSET 0.00000 0.00000 3.93700
							}
						}
						End Site
						{
							OFFSET -3.93700 0.00000 0.00000
						}
					}
				}
			}
		}
	}
	JOINT LeftUpLeg
	{
		OFFSET 4.71176 0.00000 0.00000
		CHANNELS 3 Xrotation Yrotation Zrotation
		JOINT LeftLeg
		{
			OFFSET 0.00000 -15.51045 0.00000
			CHANNELS 3 Xrotation Yrotation Zrotation
			JOINT LeftFoot
			{
				OFFSET 0.00000 -14.85806 0.00000
				CHANNELS 3 Xrotation Yrotation Zrotation
				JOINT LeftToeBase
				{
					OFFSET 0.00000 -1.32744 4.95409
					CHANNELS 3 Xrotation Yrotation Zrotation
					End Site
					{
						OFFSET 0.00000 0.00000 2.95275
					}
				}
			}
		}
	}
	JOINT RightUpLeg
	{
		OFFSET -4.71176 0.00000 0.00000
		CHANNELS 3 Xrotation Yrotation Zrotation
		JOINT RightLeg
		{
			OFFSET 0.00000 -15.51045 0.00000
			CHANNELS 3 Xrotation Yrotation Zrotation
			JOINT RightFoot
			{
				OFFSET 0.00000 -14.85806 0.00000
				CHANNELS 3 Xrotation Yrotation Zrotation
				JOINT RightToeBase
				{
					OFFSET 0.00000 -1.32744 4.95409
					CHANNELS 3 Xrotation Yrotation Zrotation
					End Site
					{
						OFFSET 0.00000 0.00000 2.95275
					}
				}
			}
		}
	}
}
MOTION
Frames:	16
Frame Time: 0.008333
-3.7105 32.2878 -4.8031 -3.7759 -9.8844 -2.5827 4.4121 -4.7409 0.6796 -0.5646 9.2553 -1.1951 7.9881 24.6351 25.8499 -21.4556 -33.5369 -102.0252 -27.6015 0.0000 14.7421 -1.1163 -15.7332 -4.1103 32.8623 0.0000 24.3270 -6.3138 -13.7985 -30.5979 3.4262 -1.7294 91.2282 122.1970 0.0000 -7.2379 2.6705 7.3325 -20.0754 33.1476 -0.0000 -26.2537 4.5068 12.2509 -3.7180 8.1459 -0.0000 -0.0000 -15.2843 23.9361 -4.4662 10.5311 -0.0000 -0.0000 4.1040 2.0351 5.2727 6.0520 -0.0000 -0.0000 -12.9380 -23.5515 12.1329 17.2280 -0.0000 -0.0000
-3.7509 32.2851 -4.8040 -3.8359 -10.0784 -2.6403 4.4383 -4.6875 0.7265 -0.3046 9.3625 -1.2338 8.1482 24.7117 25.7738 -21.6490 -33.5590 -102.1112 -27.2690 -0.0000 14.6162 -1.1103 -15.6287 -4.1150 32.8623 0.0000 24.3270 -6.1155 -13.9370 -30.5695 3.3168 -2.0462 91.1572 122.1783 -0.0000 -7.4381 2.6388 7.4116 -19.6612 33.1476 -0.0000 -26.2537 4.2954 11.9633 -3.5785 8.6722 -0.0000 -0.0000 -15.6025 24.4286 -4.5827 11.0092 -0.0000 -0.0000 4.2695 2.0971 5.3573 5.8042 -0.0000 -0.0000 -12.8599 -23.4621 12.2425 17.1929 -0.0000 -0.0000
-3.7969 32.2822 -4.8117 -3.8445 -10.2716 -2.6772 4.4054 -4.6404 0.7205 -0.0173 9.4591 -1.1917 8.0860 24.6733 25.8215 -21.5251 -33.5171 -102.1349 -27.0306 0.0000 14.7150 -1.1511 -15.6537 -4.2587 32.8623 0.0000 24.3270 -6.1463 -13.9034 -30.5657 3.5015 -2.3672 91.1252 122.1636 -0.0000 -7.3306 2.5822 7.3573 -19.4010 33.1476 -0.0000 -26.2537 4.0074 12.0249 -3.4152 9.2523 -0.0000 -0.0000 -15.8340 24.5552 -4.6957 11.1422 -0.0000 -0.0000 4.3397 2.2799 5.4566 5.6165 -0.0000 -0.0000 -12.7280 -23.2122 12.0883 17.6064 -0.0000 -0.0000
-3.8404 32.2792 -4.8189 -3.8748 -10.4309 -2.7496 4.4215 -4.6247 0.7922 0.2109 9.6547 -1.2726 8.0355 24.6525 25.8236 -21.4367 -33.4403 -102.1805 -26.7630 0.0000 14.8554 -1.1292 -15.6469 -4.1798 32.8623 0.0000 24.3270 -6.1292 -13.9446 -30.5936 3.5568 -2.6021 91.0987 122.1423 0.0000 -7.1678 2.5409 7.2055 -19.4833 33.1476 -0.0000 -26.2537 3.6425 12.2257 -3.2123 10.0086 -0.0000 -0.0000 -16.1654 24.5813 -4.6496 11.4248 -0.0000 -0.0000 4.4239 2.2749 5.5677 5.4638 -0.0000 -0.0000 -12.7348 -23.2007 12.4867 18.4070 -0.0000 -0.0000
-3.8915 32.2745 -4.8276 -3.9046 -10.6195 -2.8446 4.4354 -4.6074 0.8510 0.4418 9.8270 -1.2606 8.2214 24.7908 25.7534 -21.6124 -33.4230 -102.2177 -26.5146 -0.0000 14.8246 -1.1594 -15.6894 -4.2802 32.8623 0.0000 24.3270 -6.1343 -13.9207 -30.6081 3.6792 -2.8570 91.0380 122.0923 0.0000 -6.8576 2.5203 7.1615 -19.4467 33.1476 -0.0000 -26.2537 3.2553 12.5408 -2.9509 10.8133 -0.0000 -0.0000 -16.4974 24.5182 -4.6724 11.4325 -0.0000 -0.0000 4.4888 2.3714 5.7192 5.3279 -0.0000 -0.0000 -12.6812 -23.1443 12.6324 18.5556 -0.0000 -0.0000
-3.9431 32.2703 -4.8313 -3.9916 -10.8625 -2.9273 4.4894 -4.5174 0.8908 0.7115 9.9405 -1.2498 8.0616 24.7125 25.8354 -21.3857 -33.3230 -102.2520 -26.2500 -0.0000 14.8033 -1.1486 -15.6677 -4.2460 32.8623 0.0000 24.3270 -5.9805 -14.0042 -30.5856 3.5952 -3.0495 91.0527 122.1150 -0.0000 -6.7678 2.4329 6.9025 -19.4701 33.1476 -0.0000 -26.2537 2.9921 12.2607 -2.7753 11.4798 -0.0000 -0.0000 -16.8274 25.0550 -4.7109 11.4576 -0.0000 -0.0000 4.5899 2.4565 5.8482 5.2539 -0.0000 -0.0000 -12.6309 -22.8659 12.5213 18.0303 -0.0000 -0.0000
-3.9877 32.2658 -4.8409 -4.0458 -11.0591 -3.0114 4.5328 -4.4561 0.9565 0.9375 10.1107 -1.2727 8.1481 24.7253 25.7983 -21.3946 -33.1556 -102.2773 -26.0457 0.0000 14.9328 -1.1874 -15.5548 -4.4200 32.8623 0.0000 24.3270 -6.0600 -13.9484 -30.6232 3.7698 -3.2726 91.0278 122.0859 -0.0000 -6.5618 2.4408 6.8178 -19.7517 33.1476 -0.0000 -26.2537 2.6961 12.1766 -2.5825 12.1306 -0.0000 -0.0000 -17.1116 25.3723 -4.7998 11.5031 -0.0000 -0.0000 4.6840 3.1198 5.9955 4.9982 -0.0000 -0.0000 -12.5397 -23.3762 12.3696 17.5798 -0.0000 -0.0000
-4.0351 32.2597 -4.8562 -4.0691 -11.2563 -3.1054 4.5573 -4.4143 1.0288 1.1458 10.2745 -1.2473 8.2013 24.7569 25.7875 -21.3850 -33.0066 -102.3245 -25.8395 -0.0000 14.9507 -1.2116 -15.5478 -4.5115 32.8623 0.0000 24.3270 -6.1139 -13.8979 -30.6542 3.9006 -3.4744 91.0108 122.0500 -0.0000 -6.2979 2.4335 6.7275 -19.9395 33.1476 -0.0000 -26.2537 2.3378 12.2321 -2.3392 12.8330 -0.0000 -0.0000 -17.3953 25.5123 -5.0010 11.7825 -0.0000 -0.0000 4.7059 3.6022 6.1627 4.8273 -0.0000 -0.0000 -12.4909 -23.6540 12.3211 17.5609 -0.0000 -0.0000
-4.0864 32.2538 -4.8696 -4.0895 -11.4529 -3.1953 4.5839 -4.0480 0.9838 1.2675 10.0851 -0.9043 7.9488 24.4414 26.0779 -21.2287 -32.9041 -102.4814 -25.6179 -0.0000 14.9083 -1.2025 -15.6788 -4.4414 32.8623 0.0000 24.3270 -6.1180 -14.2282 -30.5196 3.9522 -3.7042 90.8528 122.0112 -0.0000 -6.2018 2.3895 6.6764 -19.7441 33.1476 -0.0000 -26.2537 1.9687 12.3791 -2.0839 13.5415 -0.0000 -0.0000 -17.6983 25.5904 -4.9876 11.4853 -0.0000 -0.0000 4.7511 3.8756 6.3257 4.6438 -0.0000 -0.0000 -12.4016 -23.7005 12.2385 17.4772 -0.0000 -0.0000
-4.1280 32.2463 -4.8760 -4.1594 -11.6114 -3.2903 4.6464 -4.0182 1.0727 1.4649 10.2807 -0.9207 8.0994 24.4835 26.0050 -21.2981 -32.8353 -102.4962 -25.4372 -0.0000 14.8011 -1.2063 -15.5912 -4.4797 32.8623 0.0000 24.3270 -6.1402 -14.2284 -30.5373 4.0173 -3.8808 90.7886 121.9776 0.0000 -5.9610 2.3890 6.6025 -19.9432 33.1476 -0.0000 -26.2537 1.6444 12.4038 -1.8644 14.2835 -0.0000 -0.0000 -17.9651 25.7482 -5.0581 11.2140 -0.0000 -0.0000 4.7503 4.0830 6.4652 4.6774 -0.0000 -0.0000 -12.3639 -23.7584 12.6650 17.6499 -0.0000 -0.0000
-4.1776 32.2385 -4.8859 -4.2222 -11.7854 -3.4145 4.6923 -4.1669 1.2293 1.7400 10.6259 -1.0602 8.1184 24.5973 25.9241 -21.1435 -32.7263 -102.4607 -25.2682 0.0000 14.7622 -1.1824 -15.5723 -4.3966 32.8623 0.0000 24.3270 -6.0815 -14.0674 -30.6086 4.0153 -4.0276 90.8349 121.9488 0.0000 -5.6908 2.3360 6.4528 -19.9501 33.1476 -0.0000 -26.2537 1.2568 12.5039 -1.5842 15.1112 -0.0000 -0.0000 -18.2400 25.8348 -5.0879 11.0638 -0.0000 -0.0000 4.7446 4.2014 6.6530 4.7215 -0.0000 -0.0000 -12.3529 -23.6926 12.6086 17.4327 -0.0000 -0.0000
-4.2260 32.2300 -4.8966 -4.2852 -11.9604 -3.5301 4.7567 -4.2623 1.3652 1.9593 10.8974 -1.1531 8.2341 24.7385 25.8198 -21.1650 -32.6827 -102.4508 -25.0735 -0.0000 14.6958 -1.2083 -15.6263 -4.4772 32.8623 0.0000 24.3270 -5.8640 -14.0945 -30.6206 3.7750 -4.1585 90.8730 121.9036 -0.0000 -5.4276 2.2899 6.3040 -20.0100 33.1476 -0.0000 -26.2537 0.8961 12.5708 -1.3236 15.8696 -0.0000 -0.0000 -18.4674 25.9439 -5.0126 10.7474 -0.0000 -0.0000 4.7442 4.4366 6.8323 4.7251 -0.0000 -0.0000 -12.3432 -23.7035 12.4949 17.6638 -0.0000 -0.0000
-4.2751 32.2205 -4.9065 -4.3664 -12.1369 -3.6507 4.8285 -4.2591 1.4388 2.1605 11.1199 -1.0888 8.2864 24.7834 25.8520 -21.1673 -32.5678 -102.5188 -24.8917 -0.0000 14.6150 -1.1868 -15.5796 -4.4106 32.8623 0.0000 24.3270 -6.1391 -13.7758 -30.6871 4.2539 -4.4135 90.8377 121.8818 0.0000 -5.3509 2.3242 6.3722 -20.0875 33.1476 -0.0000 -26.2537 0.5312 12.6262 -1.0512 16.6947 -0.0000 -0.0000 -18.7191 26.0452 -5.0487 10.4822 -0.0000 -0.0000 4.7787 4.6619 7.0109 4.7060 -0.0000 -0.0000 -12.2946 -23.6207 12.3379 17.5192 -0.0000 -0.0000
-4.3238 32.2109 -4.9198 -4.4357 -12.3008 -3.7783 4.9009 -4.2861 1.5360 2.3669 11.3156 -1.0340 8.2619 24.8099 25.8907 -21.0718 -32.5083 -102.5410 -24.7793 0.0000 14.5434 -1.2378 -15.7203 -4.5597 32.8623 0.0000 24.3270 -6.4721 -13.4456 -30.7789 4.7363 -4.6352 90.8178 121.8335 0.0000 -5.2530 2.3277 6.3655 -20.1343 33.1476 -0.0000 -26.2537 0.1425 12.6284 -0.7702 17.5164 -0.0000 -0.0000 -18.9598 26.2005 -5.0567 9.6001 -0.0000 -0.0000 4.7546 4.9774 7.2133 4.7330 -0.0000 -0.0000 -12.3900 -23.8077 12.0129 17.9460 -0.0000 -0.0000
-4.3658 32.2013 -4.9284 -4.5166 -12.4348 -3.8540 4.9930 -4.3040 1.6053 2.5249 11.4969 -1.0380 8.2433 24.8302 25.8771 -21.0277 -32.5430 -102.5473 -24.6340 0.0000 14.4610 -1.2523 -15.6741 -4.6259 32.8623 0.0000 24.3270 -6.3843 -13.5200 -30.7843 4.6237 -4.7380 90.7826 121.7542 -0.0000 -5.0745 2.3576 6.4502 -20.1268 33.1476 -0.0000 -26.2537 -0.1907 12.5769 -0.5761 18.3213 -0.0000 -0.0000 -19.1756 26.3658 -5.1608 10.2883 -0.0000 -0.0000 4.7548 5.6080 7.3542 4.7062 -0.0000 -0.0000 -12.4849 -24.2476 11.8957 18.1986 -0.0000 -0.0000
-4.4208 32.1923 -4.9409 -4.5746 -12.5461 -4.0181 5.0548 -4.3562 1.7491 2.7197 11.6936 -1.0259 8.2096 24.8292 25.9031 -20.8756 -32.4335 -102.5243 -24.5350 -0.0000 14.5795 -1.2476 -15.5728 -4.6378 32.8623 0.0000 24.3270 -6.3474 -13.5143 -30.7919 4.6050 -4.8404 90.7607 121.7021 -0.0000 -4.9126 2.2723 6.2061 -20.1553 33.1476 -0.0000 -26.2537 -0.6406 12.5057 -0.2447 19.2408 -0.0000 -0.0000 -19.4421 26.5381 -5.2661 10.4573 -0.0000 -0.0000 4.7616 5.6404 7.5954 4.7235 -0.0000 -0.0000 -12.4169 -24.1348 11.7811 17.7671 -0.0000 -0.0000
